<svg width="0" height="0" class="hidden">
  <symbol  xmlns="http://www.w3.org/2000/svg" viewBox="0 0 100 100" id="settings">
    <g clip-path="url(#clip0_189_606)">
      <path d="M43.8477 0.175781C42.8711 0.429688 41.6602 1.13281 40.8984 1.89453C39.6289 3.14453 39.3164 4.17969 38.7305 8.80859C38.457 11.1133 38.125 13.0859 38.0273 13.2227C37.9297 13.3594 37.5391 13.5547 37.1484 13.6719C36.7578 13.8086 35.5273 14.2969 34.4141 14.7852L32.4023 15.6836L31.6797 15.0977C28.3008 12.4219 25.7422 10.5273 25 10.1562C23.8086 9.55078 21.8945 9.41406 20.3906 9.86328C19.2773 10.1758 19.082 10.3516 14.707 14.707C10.3516 19.082 10.1758 19.2773 9.86328 20.3906C9.41406 21.9141 9.55078 23.8086 10.1562 25C10.4102 25.4883 11.6406 27.1875 12.8906 28.8086C15.9961 32.7734 15.7812 32.3242 15.0977 33.6914C14.7656 34.3359 14.2578 35.5273 13.9648 36.3281C13.6719 37.1289 13.3203 37.8906 13.2031 38.0078C13.0859 38.125 11.0938 38.457 8.78906 38.75C4.14062 39.3359 3.14453 39.6484 1.89453 40.8984C1.48438 41.2891 0.9375 42.0703 0.625 42.6367L0.0976562 43.6523V49.9023V56.1523L0.605469 57.2461C0.898438 57.8516 1.44531 58.6719 1.85547 59.082C3.14453 60.3711 4.19922 60.7031 8.63281 61.25C10.8008 61.5039 12.7734 61.7969 12.9883 61.8945C13.2227 61.9922 13.5352 62.4805 13.75 63.1055C13.9453 63.6914 14.4727 64.9219 14.9023 65.8594C15.4297 67.0508 15.625 67.6562 15.4883 67.8125C15.3906 67.9492 14.2383 69.4336 12.9492 71.0938C11.6602 72.7539 10.4102 74.5117 10.1562 75C9.55078 76.1914 9.41406 78.0859 9.86328 79.6094C10.1758 80.7227 10.3516 80.918 14.707 85.293C19.082 89.6484 19.2773 89.8242 20.3906 90.1367C21.8945 90.5859 23.8086 90.4492 25 89.8438C25.7422 89.4727 28.3008 87.5781 31.6797 84.9023L32.4023 84.3164L34.4141 85.2148C35.5273 85.7031 36.7578 86.1914 37.1484 86.3281C37.5391 86.4453 37.9297 86.6406 38.0273 86.7773C38.125 86.9141 38.457 88.8867 38.7305 91.1914C39.3164 95.8398 39.6289 96.8555 40.918 98.1445C41.3281 98.5547 42.1484 99.1016 42.7539 99.3945L43.8477 99.9023H50H56.1523L57.2461 99.3945C57.8516 99.1016 58.6719 98.5547 59.082 98.1445C60.3906 96.8359 60.7031 95.8008 61.2695 91.1719C61.543 88.8867 61.875 86.9141 61.9922 86.7969C62.1094 86.6797 62.8711 86.3281 63.6719 86.0352C64.4727 85.7422 65.6641 85.2344 66.3086 84.9023C67.6758 84.2188 67.2266 84.0039 71.1914 87.1094C72.8125 88.3594 74.5117 89.5898 75 89.8438C76.1914 90.4492 78.0859 90.5859 79.6094 90.1367C80.7227 89.8242 80.918 89.6484 85.293 85.293C89.6484 80.918 89.8242 80.7227 90.1367 79.6094C90.5859 78.0859 90.4492 76.1914 89.8438 75C89.4922 74.3164 87.6562 71.8359 84.5117 67.832C84.3945 67.6562 84.6094 66.9531 85.2148 65.5859C85.7031 64.4727 86.1914 63.2422 86.3281 62.8516C86.4453 62.4609 86.6406 62.0703 86.7773 61.9727C86.9141 61.875 88.8867 61.543 91.1914 61.2695C95.8398 60.6836 96.8555 60.3711 98.1445 59.082C98.5547 58.6719 99.1016 57.8516 99.3945 57.2461L99.9023 56.1523V50V43.8477L99.3945 42.7539C99.1016 42.1484 98.5547 41.3281 98.1445 40.918C96.8555 39.6289 95.8203 39.3164 91.1328 38.6914C88.8086 38.3984 86.8359 38.0664 86.7383 37.9688C86.6406 37.8711 86.3281 37.1289 86.0352 36.3281C85.7422 35.5273 85.2344 34.3359 84.9023 33.6914C84.2188 32.3242 84.0039 32.7734 87.1094 28.8086C88.3594 27.1875 89.5898 25.4883 89.8438 25C90.4492 23.8086 90.5859 21.9141 90.1367 20.3906C89.8242 19.2773 89.6484 19.082 85.293 14.707C80.918 10.3516 80.7227 10.1758 79.6094 9.86328C78.0859 9.41406 76.1914 9.55078 75 10.1562C74.5117 10.4102 72.8125 11.6406 71.1914 12.8906C67.2266 15.9961 67.6758 15.7812 66.3086 15.0977C65.6641 14.7656 64.4727 14.2578 63.6719 13.9648C62.8711 13.6719 62.1094 13.3203 61.9922 13.2031C61.875 13.0859 61.543 11.1133 61.2695 8.80859C60.6836 4.16016 60.3711 3.16406 59.082 1.85547C58.6719 1.44531 57.8516 0.898438 57.2461 0.605469L56.1523 0.0976562L50.293 0.0585938C47.0703 0.0390625 44.1797 0.0976562 43.8477 0.175781ZM55.4492 4.35547C56.5039 4.88281 56.6406 5.3125 57.3242 10.6445C57.8125 14.5117 58.0469 15.7812 58.3203 16.1523C58.5938 16.5039 59.375 16.875 61.0547 17.4805C62.3438 17.9297 64.3555 18.7695 65.5273 19.3359C67.3828 20.2344 67.7148 20.332 68.2422 20.1758C68.5742 20.0781 70.6445 18.5938 72.8516 16.875C78.2227 12.6953 77.3633 12.6172 82.3633 17.6367C87.3828 22.6367 87.3242 21.7383 83.0664 27.2266C81.3281 29.4727 79.8438 31.582 79.7656 31.875C79.6875 32.3242 79.8828 32.9102 80.6641 34.5312C81.2305 35.6641 82.0312 37.5586 82.4609 38.7305C83.3789 41.3086 83.4766 41.5234 84.0234 41.8164C84.2578 41.9531 86.6992 42.3438 89.4336 42.6953C94.6875 43.3594 95.1172 43.4961 95.6445 44.5508C95.9961 45.2148 95.9961 54.7852 95.6445 55.4492C95.1172 56.5039 94.6875 56.6406 89.4141 57.3047C86.6797 57.6758 84.2578 58.0664 84.0234 58.1836C83.4766 58.4766 83.3594 58.6914 82.4414 61.2891C82.0312 62.4805 81.2109 64.375 80.6641 65.5273C79.7461 67.3828 79.6484 67.6758 79.8242 68.2422C79.9219 68.5742 81.4062 70.6445 83.125 72.8516C87.3047 78.2227 87.3828 77.3633 82.3633 82.3633C77.3633 87.3828 78.2617 87.3242 72.7734 83.0664C70.5273 81.3281 68.418 79.8438 68.125 79.7656C67.6758 79.6875 67.0898 79.8828 65.4688 80.6641C64.3359 81.2305 62.4219 82.0312 61.2305 82.4609C60.0586 82.8906 58.8867 83.3594 58.6523 83.5156C58.0469 83.9062 57.8906 84.6289 57.2461 89.8242C56.6406 94.6484 56.5039 95.1172 55.4492 95.6445C54.7852 95.9961 45.2148 95.9961 44.5508 95.6445C43.4961 95.0977 43.3594 94.6875 42.6953 89.375C42.1875 85.4492 41.9727 84.2383 41.6797 83.8477C41.4062 83.4961 40.6445 83.125 38.9648 82.5195C37.6562 82.0703 35.6641 81.2305 34.5117 80.6836C32.8711 79.8828 32.3047 79.6875 31.8555 79.7852C31.543 79.8438 29.5898 81.2305 27.5195 82.832C25.4297 84.4531 23.4766 85.918 23.1836 86.0742C22.0312 86.6602 21.6602 86.4062 17.5781 82.3242C12.6367 77.3633 12.6953 78.2422 16.9336 72.7734C18.6719 70.5273 20.1562 68.4375 20.2148 68.1445C20.3125 67.7344 20.0977 67.0898 19.3359 65.5273C18.7891 64.375 17.9688 62.4609 17.5586 61.2695C17.1289 60.0586 16.6406 58.8867 16.4844 58.6523C16.0938 58.0469 15.3711 57.8906 10.1758 57.2461C5.35156 56.6406 4.88281 56.5039 4.35547 55.4492C4.00391 54.7852 4.00391 45.2148 4.35547 44.5508C4.88281 43.4961 5.35156 43.3594 10.1758 42.7539C15.3711 42.1094 16.0938 41.9531 16.4844 41.3477C16.6406 41.1133 17.1094 39.9414 17.5391 38.7695C17.9688 37.5781 18.7695 35.6641 19.3359 34.5117C20.2539 32.6367 20.3516 32.3242 20.1758 31.7773C20.0781 31.4258 18.5938 29.3555 16.875 27.1484C12.6953 21.7773 12.6172 22.6367 17.6367 17.6367C22.6367 12.6172 21.7773 12.6953 27.1484 16.875C29.3555 18.5938 31.4258 20.0781 31.7578 20.1758C32.3047 20.3516 32.6367 20.2539 34.6094 19.2773C35.8203 18.6914 37.7344 17.8906 38.8672 17.4805C40 17.0898 41.1133 16.6406 41.3477 16.5039C41.9531 16.0938 42.1094 15.3711 42.7539 10.1758C43.3594 5.35156 43.4961 4.88281 44.5508 4.35547C44.8828 4.17969 46.4258 4.10156 50 4.10156C53.5742 4.10156 55.1172 4.17969 55.4492 4.35547Z" ></path>
      <path d="M47.6173 29.2968C40.4103 30.1953 34.2775 34.6679 31.1525 41.2695C27.4025 49.2187 29.1603 58.7304 35.5079 64.8828C41.7775 70.9375 50.9767 72.539 58.6915 68.8672C63.34 66.6797 66.6798 63.3398 68.8478 58.7304C73.9064 48.0273 68.8868 35.3125 57.754 30.6836C54.8829 29.4922 50.6446 28.9062 47.6173 29.2968ZM53.3204 33.6719C57.6368 34.5898 61.3673 37.1289 63.8478 40.8203C65.7423 43.6523 66.6017 46.5625 66.6017 50.0781C66.5821 55.7226 63.9259 60.6445 59.1603 63.8476C57.3439 65.0781 54.922 66.0547 52.8126 66.4258C52.0509 66.5625 50.5275 66.6211 49.1407 66.5625C46.2892 66.4453 43.9845 65.7617 41.504 64.2969C39.6485 63.2031 37.129 60.7812 35.9767 58.9844C35.0196 57.5195 34.0626 55.1562 33.672 53.3203C33.3204 51.6797 33.3204 48.3203 33.672 46.6797C35.0587 40.1758 40.0782 35.1172 46.5821 33.6914C48.1446 33.3398 51.7384 33.3398 53.3204 33.6719Z" ></path>
    </g>
    <defs>
      <clipPath id="clip0_189_606">
        <rect width="100" height="100" ></rect>
      </clipPath>
    </defs>
  </symbol>
  <symbol  xmlns="http://www.w3.org/2000/svg" viewBox="0 0 100 100" id="calendar">
    <path d="M28.9258 8.32026C28.1055 8.90619 27.9297 9.70697 27.9297 12.9882V16.0156H23.0859C20.4102 16.0156 17.7148 16.1132 17.0703 16.2304C16.4453 16.3476 15.1758 16.7773 14.2773 17.2265C11.543 18.5351 9.55078 20.8788 8.47656 24.0234C8.125 25.0585 8.10547 26.2695 8.10547 54.0038C8.10547 81.7382 8.125 82.9492 8.47656 83.9843C9.10156 85.8203 10.0195 87.3437 11.2305 88.5937C12.5391 89.9023 13.6719 90.6445 15.6055 91.3867L16.8945 91.8945L49.3164 91.9531C85.4297 92.0117 83.1445 92.0898 85.9766 90.6835C87.7148 89.8046 89.6875 87.8906 90.5859 86.1913C90.9375 85.5273 91.3867 84.3163 91.6016 83.4765C91.9727 82.0117 91.9922 81.2109 91.9922 54.0038C91.9922 26.7968 91.9727 25.996 91.6016 24.5312C91.0742 22.4804 90.1758 20.8398 88.7695 19.414C87.4609 18.0859 86.3086 17.3632 84.3945 16.621C83.1445 16.1523 82.9297 16.1328 77.5977 16.0546L72.0703 15.9765V12.9687C72.0703 9.70697 71.8945 8.90619 71.0742 8.32026C70.3516 7.83198 69.4336 7.92963 68.7109 8.57416L68.0664 9.14057L68.0078 12.5781L67.9492 16.0156H50H32.0508L31.9922 12.5781L31.9336 9.14057L31.2891 8.57416C30.5664 7.92963 29.6484 7.83198 28.9258 8.32026ZM81.9531 20.1367C83.418 20.4101 85.1562 21.3281 86.0352 22.2851C87.5977 24.0234 88.1445 26.0546 88.0469 29.7851L87.9883 31.9335H50H12.0117L11.9531 29.7851C11.8555 26.0546 12.4023 24.0234 13.9648 22.3046C14.8047 21.3671 16.3867 20.4882 17.7734 20.1953C19.2383 19.8632 80.2148 19.8242 81.9531 20.1367ZM88.0469 58.2031C88.0859 73.0663 88.0273 80.8203 87.8906 81.7187C87.3828 85.0195 85.0781 87.3437 81.8164 87.8906C80.0977 88.164 19.9023 88.164 18.1836 87.8906C14.9805 87.3632 12.6367 85.039 12.1289 81.8359C11.8945 80.4296 11.8164 36.289 12.0508 36.0742C12.1094 35.996 29.2383 35.957 50.0781 35.9765L87.9883 36.0351L88.0469 58.2031Z" ></path>
  </symbol>
  <symbol  xmlns="http://www.w3.org/2000/svg" viewBox="0 0 100 100" id="library">
    <g clip-path="url(#clip0_189_619)">
      <path d="M16.2695 0.273392C13.125 1.03511 10.5273 3.37886 9.33592 6.56245L8.8867 7.7148L8.82811 49.1211C8.76951 94.5117 8.71092 92.2461 9.90232 94.7265C10.9961 96.9921 14.1406 99.3164 16.7773 99.8046C18.3789 100.098 89.7461 100.078 90.2929 99.7656C91.289 99.2382 91.5039 98.2031 90.7812 97.3828C90.4297 96.9921 90.039 96.8359 88.9844 96.6992C85.4883 96.2109 83.125 93.6523 83.1445 90.332C83.164 86.8359 85.5078 84.2382 89.0234 83.8086C90.0586 83.6914 90.3906 83.5546 90.7617 83.125L91.2109 82.5976V41.8164V1.03511L90.7031 0.507767L90.1758 -4.57764e-05L53.7305 0.0194855C25.293 0.0390167 17.0703 0.0780792 16.2695 0.273392ZM87.8906 41.8945V80.4687H54.0039H20.1172V41.8945V3.32027H54.0039H87.8906V41.8945ZM16.9922 42.0703V80.6445L15.8789 80.957C14.5117 81.3476 13.5351 81.8359 12.7148 82.5195L12.1094 83.0468L12.1484 45.4687L12.207 7.91011L12.6953 6.93355C12.9492 6.4062 13.5351 5.60542 14.0039 5.1562C14.8047 4.37495 16.25 3.51558 16.7578 3.51558C16.9336 3.51558 16.9922 11.3671 16.9922 42.0703ZM81.4258 85C80.3125 86.7578 79.9805 87.9882 80 90.4296C80 92.7343 80.3711 93.9648 81.543 95.7031L82.207 96.6796L49.4531 96.6406L16.6992 96.582L15.7226 96.1132C14.4922 95.4882 13.3008 94.2968 12.6758 93.0664C12.2851 92.2461 12.207 91.8164 12.207 90.2343C12.207 88.6718 12.2851 88.2226 12.6758 87.4609C13.4375 85.8984 15.0976 84.4921 16.7969 83.9648C17.0703 83.8867 31.8945 83.8086 49.7461 83.8086L82.2265 83.789L81.4258 85Z" ></path>
    </g>
    <defs>
      <clipPath id="clip0_189_619">
        <rect width="100" height="100" ></rect>
      </clipPath>
    </defs>
  </symbol>
  <symbol  xmlns="http://www.w3.org/2000/svg" viewBox="0 0 109 99" id="home">
    <path fill-rule="evenodd" clip-rule="evenodd" d="M50.7802 0.28487C48.8285 0.708817 46.4619 1.69611 44.8126 2.77436C43.2616 3.78864 5.18263 35.516 3.20657 37.4406C1.76826 38.8415 0.497616 41.3458 0.140754 43.4832C-0.818193 49.2276 3.23086 54.9835 8.99349 56.0681L10.4099 56.3346L10.4131 72.7266C10.4165 90.7895 10.4039 90.5971 11.7421 93.1364C12.6463 94.8523 14.669 96.8658 16.3278 97.701C18.9189 99.0057 18.8465 99 32.8195 99H45.5524L45.6112 84.1778L45.67 69.3556L46.3537 67.9161C48.066 64.3106 51.9149 62.2182 55.7473 62.8098C59.3794 63.3706 62.2273 65.8926 63.1292 69.3471C63.4121 70.4307 63.4598 72.6652 63.4598 84.8068V99L76.2962 98.9974C90.2324 98.9947 90.1983 98.9972 92.6166 97.7906C94.4229 96.8896 96.4782 94.7588 97.3947 92.8374C97.813 91.9608 98.2582 90.6762 98.3842 89.9826C98.5348 89.1549 98.6134 83.1644 98.6134 72.5417V56.3616L99.945 56.116C102.801 55.5892 106.003 53.3785 107.417 50.957C110.009 46.5195 109.376 41.1799 105.823 37.5099C104.048 35.6766 66.1343 4.02644 64.2106 2.77181C62.4793 1.64299 60.2608 0.73793 58.1261 0.290183C56.2932 -0.0944503 52.5396 -0.0972128 50.7802 0.28487ZM58.7759 4.82035C59.5394 5.06877 60.759 5.6334 61.4861 6.07562C63.2796 7.16576 102.789 40.2391 103.555 41.2914C105.427 43.8632 105.034 47.7579 102.662 50.1238C101.206 51.5754 100.225 51.9043 97.0732 51.9983L94.3613 52.079L94.3036 70.816L94.2458 89.5529L93.5445 90.9737C92.7193 92.6455 91.5673 93.7161 89.9405 94.3232C88.8522 94.7293 88.2893 94.7499 78.2682 94.7499H67.7394L67.6667 81.8403C67.5879 67.7856 67.6444 68.4652 66.33 65.7879C64.0397 61.1226 58.8894 58.1422 53.7125 58.4867C51.5553 58.6301 48.8977 59.5026 47.205 60.6234C45.5106 61.7452 43.6353 63.8624 42.7194 65.6876C41.2898 68.5368 41.3024 68.3892 41.3024 82.2642V94.7646L30.3835 94.7042L19.4646 94.6437L18.5495 94.1564C17.1391 93.4052 16.0202 92.28 15.3697 90.959L14.7774 89.7561L14.7197 70.9175L14.662 52.079L11.95 51.9983C8.79791 51.9043 7.81702 51.5754 6.36166 50.1238C4.06453 47.8325 3.61265 44.2002 5.29555 41.5535C5.72975 40.8705 11.3447 36.0568 25.4641 24.263C36.2258 15.2741 45.5581 7.50322 46.2026 6.99449C47.5442 5.93558 49.5156 4.98207 51.2749 4.54112C53.0614 4.09316 56.9896 4.23958 58.7759 4.82035Z" ></path>
  </symbol>
</svg>