<svg width="0" height="0" class="hidden">
  <symbol  xmlns="http://www.w3.org/2000/svg" viewBox="0 0 100 100" id="settings">
    <g clip-path="url(#clip0_189_606)">
      <path d="M43.8477 0.175781C42.8711 0.429688 41.6602 1.13281 40.8984 1.89453C39.6289 3.14453 39.3164 4.17969 38.7305 8.80859C38.457 11.1133 38.125 13.0859 38.0273 13.2227C37.9297 13.3594 37.5391 13.5547 37.1484 13.6719C36.7578 13.8086 35.5273 14.2969 34.4141 14.7852L32.4023 15.6836L31.6797 15.0977C28.3008 12.4219 25.7422 10.5273 25 10.1562C23.8086 9.55078 21.8945 9.41406 20.3906 9.86328C19.2773 10.1758 19.082 10.3516 14.707 14.707C10.3516 19.082 10.1758 19.2773 9.86328 20.3906C9.41406 21.9141 9.55078 23.8086 10.1562 25C10.4102 25.4883 11.6406 27.1875 12.8906 28.8086C15.9961 32.7734 15.7812 32.3242 15.0977 33.6914C14.7656 34.3359 14.2578 35.5273 13.9648 36.3281C13.6719 37.1289 13.3203 37.8906 13.2031 38.0078C13.0859 38.125 11.0938 38.457 8.78906 38.75C4.14062 39.3359 3.14453 39.6484 1.89453 40.8984C1.48438 41.2891 0.9375 42.0703 0.625 42.6367L0.0976562 43.6523V49.9023V56.1523L0.605469 57.2461C0.898438 57.8516 1.44531 58.6719 1.85547 59.082C3.14453 60.3711 4.19922 60.7031 8.63281 61.25C10.8008 61.5039 12.7734 61.7969 12.9883 61.8945C13.2227 61.9922 13.5352 62.4805 13.75 63.1055C13.9453 63.6914 14.4727 64.9219 14.9023 65.8594C15.4297 67.0508 15.625 67.6562 15.4883 67.8125C15.3906 67.9492 14.2383 69.4336 12.9492 71.0938C11.6602 72.7539 10.4102 74.5117 10.1562 75C9.55078 76.1914 9.41406 78.0859 9.86328 79.6094C10.1758 80.7227 10.3516 80.918 14.707 85.293C19.082 89.6484 19.2773 89.8242 20.3906 90.1367C21.8945 90.5859 23.8086 90.4492 25 89.8438C25.7422 89.4727 28.3008 87.5781 31.6797 84.9023L32.4023 84.3164L34.4141 85.2148C35.5273 85.7031 36.7578 86.1914 37.1484 86.3281C37.5391 86.4453 37.9297 86.6406 38.0273 86.7773C38.125 86.9141 38.457 88.8867 38.7305 91.1914C39.3164 95.8398 39.6289 96.8555 40.918 98.1445C41.3281 98.5547 42.1484 99.1016 42.7539 99.3945L43.8477 99.9023H50H56.1523L57.2461 99.3945C57.8516 99.1016 58.6719 98.5547 59.082 98.1445C60.3906 96.8359 60.7031 95.8008 61.2695 91.1719C61.543 88.8867 61.875 86.9141 61.9922 86.7969C62.1094 86.6797 62.8711 86.3281 63.6719 86.0352C64.4727 85.7422 65.6641 85.2344 66.3086 84.9023C67.6758 84.2188 67.2266 84.0039 71.1914 87.1094C72.8125 88.3594 74.5117 89.5898 75 89.8438C76.1914 90.4492 78.0859 90.5859 79.6094 90.1367C80.7227 89.8242 80.918 89.6484 85.293 85.293C89.6484 80.918 89.8242 80.7227 90.1367 79.6094C90.5859 78.0859 90.4492 76.1914 89.8438 75C89.4922 74.3164 87.6562 71.8359 84.5117 67.832C84.3945 67.6562 84.6094 66.9531 85.2148 65.5859C85.7031 64.4727 86.1914 63.2422 86.3281 62.8516C86.4453 62.4609 86.6406 62.0703 86.7773 61.9727C86.9141 61.875 88.8867 61.543 91.1914 61.2695C95.8398 60.6836 96.8555 60.3711 98.1445 59.082C98.5547 58.6719 99.1016 57.8516 99.3945 57.2461L99.9023 56.1523V50V43.8477L99.3945 42.7539C99.1016 42.1484 98.5547 41.3281 98.1445 40.918C96.8555 39.6289 95.8203 39.3164 91.1328 38.6914C88.8086 38.3984 86.8359 38.0664 86.7383 37.9688C86.6406 37.8711 86.3281 37.1289 86.0352 36.3281C85.7422 35.5273 85.2344 34.3359 84.9023 33.6914C84.2188 32.3242 84.0039 32.7734 87.1094 28.8086C88.3594 27.1875 89.5898 25.4883 89.8438 25C90.4492 23.8086 90.5859 21.9141 90.1367 20.3906C89.8242 19.2773 89.6484 19.082 85.293 14.707C80.918 10.3516 80.7227 10.1758 79.6094 9.86328C78.0859 9.41406 76.1914 9.55078 75 10.1562C74.5117 10.4102 72.8125 11.6406 71.1914 12.8906C67.2266 15.9961 67.6758 15.7812 66.3086 15.0977C65.6641 14.7656 64.4727 14.2578 63.6719 13.9648C62.8711 13.6719 62.1094 13.3203 61.9922 13.2031C61.875 13.0859 61.543 11.1133 61.2695 8.80859C60.6836 4.16016 60.3711 3.16406 59.082 1.85547C58.6719 1.44531 57.8516 0.898438 57.2461 0.605469L56.1523 0.0976562L50.293 0.0585938C47.0703 0.0390625 44.1797 0.0976562 43.8477 0.175781ZM55.4492 4.35547C56.5039 4.88281 56.6406 5.3125 57.3242 10.6445C57.8125 14.5117 58.0469 15.7812 58.3203 16.1523C58.5938 16.5039 59.375 16.875 61.0547 17.4805C62.3438 17.9297 64.3555 18.7695 65.5273 19.3359C67.3828 20.2344 67.7148 20.332 68.2422 20.1758C68.5742 20.0781 70.6445 18.5938 72.8516 16.875C78.2227 12.6953 77.3633 12.6172 82.3633 17.6367C87.3828 22.6367 87.3242 21.7383 83.0664 27.2266C81.3281 29.4727 79.8438 31.582 79.7656 31.875C79.6875 32.3242 79.8828 32.9102 80.6641 34.5312C81.2305 35.6641 82.0312 37.5586 82.4609 38.7305C83.3789 41.3086 83.4766 41.5234 84.0234 41.8164C84.2578 41.9531 86.6992 42.3438 89.4336 42.6953C94.6875 43.3594 95.1172 43.4961 95.6445 44.5508C95.9961 45.2148 95.9961 54.7852 95.6445 55.4492C95.1172 56.5039 94.6875 56.6406 89.4141 57.3047C86.6797 57.6758 84.2578 58.0664 84.0234 58.1836C83.4766 58.4766 83.3594 58.6914 82.4414 61.2891C82.0312 62.4805 81.2109 64.375 80.6641 65.5273C79.7461 67.3828 79.6484 67.6758 79.8242 68.2422C79.9219 68.5742 81.4062 70.6445 83.125 72.8516C87.3047 78.2227 87.3828 77.3633 82.3633 82.3633C77.3633 87.3828 78.2617 87.3242 72.7734 83.0664C70.5273 81.3281 68.418 79.8438 68.125 79.7656C67.6758 79.6875 67.0898 79.8828 65.4688 80.6641C64.3359 81.2305 62.4219 82.0312 61.2305 82.4609C60.0586 82.8906 58.8867 83.3594 58.6523 83.5156C58.0469 83.9062 57.8906 84.6289 57.2461 89.8242C56.6406 94.6484 56.5039 95.1172 55.4492 95.6445C54.7852 95.9961 45.2148 95.9961 44.5508 95.6445C43.4961 95.0977 43.3594 94.6875 42.6953 89.375C42.1875 85.4492 41.9727 84.2383 41.6797 83.8477C41.4062 83.4961 40.6445 83.125 38.9648 82.5195C37.6562 82.0703 35.6641 81.2305 34.5117 80.6836C32.8711 79.8828 32.3047 79.6875 31.8555 79.7852C31.543 79.8438 29.5898 81.2305 27.5195 82.832C25.4297 84.4531 23.4766 85.918 23.1836 86.0742C22.0312 86.6602 21.6602 86.4062 17.5781 82.3242C12.6367 77.3633 12.6953 78.2422 16.9336 72.7734C18.6719 70.5273 20.1562 68.4375 20.2148 68.1445C20.3125 67.7344 20.0977 67.0898 19.3359 65.5273C18.7891 64.375 17.9688 62.4609 17.5586 61.2695C17.1289 60.0586 16.6406 58.8867 16.4844 58.6523C16.0938 58.0469 15.3711 57.8906 10.1758 57.2461C5.35156 56.6406 4.88281 56.5039 4.35547 55.4492C4.00391 54.7852 4.00391 45.2148 4.35547 44.5508C4.88281 43.4961 5.35156 43.3594 10.1758 42.7539C15.3711 42.1094 16.0938 41.9531 16.4844 41.3477C16.6406 41.1133 17.1094 39.9414 17.5391 38.7695C17.9688 37.5781 18.7695 35.6641 19.3359 34.5117C20.2539 32.6367 20.3516 32.3242 20.1758 31.7773C20.0781 31.4258 18.5938 29.3555 16.875 27.1484C12.6953 21.7773 12.6172 22.6367 17.6367 17.6367C22.6367 12.6172 21.7773 12.6953 27.1484 16.875C29.3555 18.5938 31.4258 20.0781 31.7578 20.1758C32.3047 20.3516 32.6367 20.2539 34.6094 19.2773C35.8203 18.6914 37.7344 17.8906 38.8672 17.4805C40 17.0898 41.1133 16.6406 41.3477 16.5039C41.9531 16.0938 42.1094 15.3711 42.7539 10.1758C43.3594 5.35156 43.4961 4.88281 44.5508 4.35547C44.8828 4.17969 46.4258 4.10156 50 4.10156C53.5742 4.10156 55.1172 4.17969 55.4492 4.35547Z" ></path>
      <path d="M47.6173 29.2968C40.4103 30.1953 34.2775 34.6679 31.1525 41.2695C27.4025 49.2187 29.1603 58.7304 35.5079 64.8828C41.7775 70.9375 50.9767 72.539 58.6915 68.8672C63.34 66.6797 66.6798 63.3398 68.8478 58.7304C73.9064 48.0273 68.8868 35.3125 57.754 30.6836C54.8829 29.4922 50.6446 28.9062 47.6173 29.2968ZM53.3204 33.6719C57.6368 34.5898 61.3673 37.1289 63.8478 40.8203C65.7423 43.6523 66.6017 46.5625 66.6017 50.0781C66.5821 55.7226 63.9259 60.6445 59.1603 63.8476C57.3439 65.0781 54.922 66.0547 52.8126 66.4258C52.0509 66.5625 50.5275 66.6211 49.1407 66.5625C46.2892 66.4453 43.9845 65.7617 41.504 64.2969C39.6485 63.2031 37.129 60.7812 35.9767 58.9844C35.0196 57.5195 34.0626 55.1562 33.672 53.3203C33.3204 51.6797 33.3204 48.3203 33.672 46.6797C35.0587 40.1758 40.0782 35.1172 46.5821 33.6914C48.1446 33.3398 51.7384 33.3398 53.3204 33.6719Z" ></path>
    </g>
    <defs>
      <clipPath id="clip0_189_606">
        <rect width="100" height="100" ></rect>
      </clipPath>
    </defs>
  </symbol>
  <symbol  xmlns="http://www.w3.org/2000/svg" viewBox="0 0 100 100" id="calendar">
    <path d="M28.9258 8.32026C28.1055 8.90619 27.9297 9.70697 27.9297 12.9882V16.0156H23.0859C20.4102 16.0156 17.7148 16.1132 17.0703 16.2304C16.4453 16.3476 15.1758 16.7773 14.2773 17.2265C11.543 18.5351 9.55078 20.8788 8.47656 24.0234C8.125 25.0585 8.10547 26.2695 8.10547 54.0038C8.10547 81.7382 8.125 82.9492 8.47656 83.9843C9.10156 85.8203 10.0195 87.3437 11.2305 88.5937C12.5391 89.9023 13.6719 90.6445 15.6055 91.3867L16.8945 91.8945L49.3164 91.9531C85.4297 92.0117 83.1445 92.0898 85.9766 90.6835C87.7148 89.8046 89.6875 87.8906 90.5859 86.1913C90.9375 85.5273 91.3867 84.3163 91.6016 83.4765C91.9727 82.0117 91.9922 81.2109 91.9922 54.0038C91.9922 26.7968 91.9727 25.996 91.6016 24.5312C91.0742 22.4804 90.1758 20.8398 88.7695 19.414C87.4609 18.0859 86.3086 17.3632 84.3945 16.621C83.1445 16.1523 82.9297 16.1328 77.5977 16.0546L72.0703 15.9765V12.9687C72.0703 9.70697 71.8945 8.90619 71.0742 8.32026C70.3516 7.83198 69.4336 7.92963 68.7109 8.57416L68.0664 9.14057L68.0078 12.5781L67.9492 16.0156H50H32.0508L31.9922 12.5781L31.9336 9.14057L31.2891 8.57416C30.5664 7.92963 29.6484 7.83198 28.9258 8.32026ZM81.9531 20.1367C83.418 20.4101 85.1562 21.3281 86.0352 22.2851C87.5977 24.0234 88.1445 26.0546 88.0469 29.7851L87.9883 31.9335H50H12.0117L11.9531 29.7851C11.8555 26.0546 12.4023 24.0234 13.9648 22.3046C14.8047 21.3671 16.3867 20.4882 17.7734 20.1953C19.2383 19.8632 80.2148 19.8242 81.9531 20.1367ZM88.0469 58.2031C88.0859 73.0663 88.0273 80.8203 87.8906 81.7187C87.3828 85.0195 85.0781 87.3437 81.8164 87.8906C80.0977 88.164 19.9023 88.164 18.1836 87.8906C14.9805 87.3632 12.6367 85.039 12.1289 81.8359C11.8945 80.4296 11.8164 36.289 12.0508 36.0742C12.1094 35.996 29.2383 35.957 50.0781 35.9765L87.9883 36.0351L88.0469 58.2031Z" ></path>
  </symbol>
  <symbol  xmlns="http://www.w3.org/2000/svg" viewBox="0 0 100 100" id="library">
    <g clip-path="url(#clip0_189_619)">
      <path d="M16.2695 0.273392C13.125 1.03511 10.5273 3.37886 9.33592 6.56245L8.8867 7.7148L8.82811 49.1211C8.76951 94.5117 8.71092 92.2461 9.90232 94.7265C10.9961 96.9921 14.1406 99.3164 16.7773 99.8046C18.3789 100.098 89.7461 100.078 90.2929 99.7656C91.289 99.2382 91.5039 98.2031 90.7812 97.3828C90.4297 96.9921 90.039 96.8359 88.9844 96.6992C85.4883 96.2109 83.125 93.6523 83.1445 90.332C83.164 86.8359 85.5078 84.2382 89.0234 83.8086C90.0586 83.6914 90.3906 83.5546 90.7617 83.125L91.2109 82.5976V41.8164V1.03511L90.7031 0.507767L90.1758 -4.57764e-05L53.7305 0.0194855C25.293 0.0390167 17.0703 0.0780792 16.2695 0.273392ZM87.8906 41.8945V80.4687H54.0039H20.1172V41.8945V3.32027H54.0039H87.8906V41.8945ZM16.9922 42.0703V80.6445L15.8789 80.957C14.5117 81.3476 13.5351 81.8359 12.7148 82.5195L12.1094 83.0468L12.1484 45.4687L12.207 7.91011L12.6953 6.93355C12.9492 6.4062 13.5351 5.60542 14.0039 5.1562C14.8047 4.37495 16.25 3.51558 16.7578 3.51558C16.9336 3.51558 16.9922 11.3671 16.9922 42.0703ZM81.4258 85C80.3125 86.7578 79.9805 87.9882 80 90.4296C80 92.7343 80.3711 93.9648 81.543 95.7031L82.207 96.6796L49.4531 96.6406L16.6992 96.582L15.7226 96.1132C14.4922 95.4882 13.3008 94.2968 12.6758 93.0664C12.2851 92.2461 12.207 91.8164 12.207 90.2343C12.207 88.6718 12.2851 88.2226 12.6758 87.4609C13.4375 85.8984 15.0976 84.4921 16.7969 83.9648C17.0703 83.8867 31.8945 83.8086 49.7461 83.8086L82.2265 83.789L81.4258 85Z" ></path>
    </g>
    <defs>
      <clipPath id="clip0_189_619">
        <rect width="100" height="100" ></rect>
      </clipPath>
    </defs>
  </symbol>
  <symbol  xmlns="http://www.w3.org/2000/svg" viewBox="0 0 109 99" id="home">
    <path fill-rule="evenodd" clip-rule="evenodd" d="M50.7802 0.28487C48.8285 0.708817 46.4619 1.69611 44.8126 2.77436C43.2616 3.78864 5.18263 35.516 3.20657 37.4406C1.76826 38.8415 0.497616 41.3458 0.140754 43.4832C-0.818193 49.2276 3.23086 54.9835 8.99349 56.0681L10.4099 56.3346L10.4131 72.7266C10.4165 90.7895 10.4039 90.5971 11.7421 93.1364C12.6463 94.8523 14.669 96.8658 16.3278 97.701C18.9189 99.0057 18.8465 99 32.8195 99H45.5524L45.6112 84.1778L45.67 69.3556L46.3537 67.9161C48.066 64.3106 51.9149 62.2182 55.7473 62.8098C59.3794 63.3706 62.2273 65.8926 63.1292 69.3471C63.4121 70.4307 63.4598 72.6652 63.4598 84.8068V99L76.2962 98.9974C90.2324 98.9947 90.1983 98.9972 92.6166 97.7906C94.4229 96.8896 96.4782 94.7588 97.3947 92.8374C97.813 91.9608 98.2582 90.6762 98.3842 89.9826C98.5348 89.1549 98.6134 83.1644 98.6134 72.5417V56.3616L99.945 56.116C102.801 55.5892 106.003 53.3785 107.417 50.957C110.009 46.5195 109.376 41.1799 105.823 37.5099C104.048 35.6766 66.1343 4.02644 64.2106 2.77181C62.4793 1.64299 60.2608 0.73793 58.1261 0.290183C56.2932 -0.0944503 52.5396 -0.0972128 50.7802 0.28487ZM58.7759 4.82035C59.5394 5.06877 60.759 5.6334 61.4861 6.07562C63.2796 7.16576 102.789 40.2391 103.555 41.2914C105.427 43.8632 105.034 47.7579 102.662 50.1238C101.206 51.5754 100.225 51.9043 97.0732 51.9983L94.3613 52.079L94.3036 70.816L94.2458 89.5529L93.5445 90.9737C92.7193 92.6455 91.5673 93.7161 89.9405 94.3232C88.8522 94.7293 88.2893 94.7499 78.2682 94.7499H67.7394L67.6667 81.8403C67.5879 67.7856 67.6444 68.4652 66.33 65.7879C64.0397 61.1226 58.8894 58.1422 53.7125 58.4867C51.5553 58.6301 48.8977 59.5026 47.205 60.6234C45.5106 61.7452 43.6353 63.8624 42.7194 65.6876C41.2898 68.5368 41.3024 68.3892 41.3024 82.2642V94.7646L30.3835 94.7042L19.4646 94.6437L18.5495 94.1564C17.1391 93.4052 16.0202 92.28 15.3697 90.959L14.7774 89.7561L14.7197 70.9175L14.662 52.079L11.95 51.9983C8.79791 51.9043 7.81702 51.5754 6.36166 50.1238C4.06453 47.8325 3.61265 44.2002 5.29555 41.5535C5.72975 40.8705 11.3447 36.0568 25.4641 24.263C36.2258 15.2741 45.5581 7.50322 46.2026 6.99449C47.5442 5.93558 49.5156 4.98207 51.2749 4.54112C53.0614 4.09316 56.9896 4.23958 58.7759 4.82035Z" ></path>
  </symbol>
    <symbol xmlns="http://www.w3.org/2000/svg" viewBox="0 0 129 100" id="menu">
    <path fill-rule="evenodd" clip-rule="evenodd" d="M3.16453 0.529188C0.439016 1.46428 -0.764921 4.75668 0.508487 7.79232C1.68712 10.6016 -3.09287 10.4056 64.2102 10.4056C132.636 10.4056 127.034 10.6728 128.514 7.33957C129.835 4.36433 128.374 1.30469 125.197 0.397203C123.066 -0.211525 4.95116 -0.0835391 3.16453 0.529188ZM3.16453 45.3238C0.439016 46.2589 -0.764921 49.5513 0.508487 52.587C1.68712 55.3962 -3.09287 55.2003 64.2102 55.2003C132.636 55.2003 127.034 55.4674 128.514 52.1342C129.835 49.159 128.374 46.0993 125.197 45.1918C123.066 44.5831 4.95116 44.7111 3.16453 45.3238ZM3.16453 90.1185C0.439016 91.0536 -0.764921 94.346 0.508487 97.3816C1.68712 100.191 -3.09287 99.9949 64.2102 99.9949C132.636 99.9949 127.034 100.262 128.514 96.9289C129.835 93.9536 128.374 90.894 125.197 89.9865C123.066 89.3778 4.95116 89.5058 3.16453 90.1185Z"></path>
  </symbol>
    <symbol xmlns="http://www.w3.org/2000/svg" viewBox="0 0 100 100" id="administration">
    <g clip-path="url(#clip0_194_372)">
      <path d="M32.0312 0.410156C22.793 2.34375 15.5078 9.84375 13.457 19.5898C12.8906 22.1875 12.8516 26.9922 13.3398 29.4922C14.1992 33.8477 16.0742 37.8711 18.6914 40.957C19.668 42.1094 19.6875 42.168 19.2773 42.3047C18.457 42.5586 15.4297 44.3555 13.8281 45.5469C7.20703 50.4297 2.48047 57.8906 0.566406 66.5039C0.15625 68.3594 0.117187 68.9453 0.0585937 79.2773L-0.0195312 90.0781L0.410156 90.5469L0.839844 91.0156H26.1523H51.4648L52.0312 91.7188C52.6953 92.5391 53.5937 92.9688 54.6875 92.9688C55.6445 92.9688 56.1719 92.7148 58.3008 91.1914C59.1992 90.5469 60.0195 90.0586 60.1172 90.1172C60.2148 90.1758 60.1367 91.0352 59.9414 92.0312C59.4531 94.5312 59.4727 95.8203 59.9805 96.6797C60.4492 97.4219 60.8203 97.7734 61.4648 98.0469C62.207 98.3594 71.3867 100 72.3633 100C74.5312 100 75.3711 99.0039 75.957 95.7031C76.1914 94.4727 76.3672 93.3984 76.3672 93.3203C76.3672 92.832 76.8945 93.3984 78.1641 95.2148C79.8437 97.6172 80.625 98.1641 82.2266 98.0078C83.0469 97.9297 83.6133 97.5977 87.0508 95.2148C92.168 91.6406 92.4805 91.3867 92.8711 90.332C93.418 88.9062 93.2031 88.1055 91.6211 85.8008C90.8594 84.6875 90.2344 83.6914 90.2344 83.5938C90.2344 83.3203 90.4297 83.3398 92.7734 83.8086C94.0625 84.043 95.1367 84.1602 95.6445 84.082C96.582 83.9453 97.5195 83.2617 97.9687 82.3828C98.3398 81.6797 100 72.5391 100 71.2305C100 70.0977 99.5703 69.1211 98.8086 68.4766C98.2812 68.0273 97.5195 67.8125 94.2773 67.1875C93.6523 67.0508 93.1641 66.875 93.2031 66.7578C93.2422 66.6406 94.1601 65.918 95.2148 65.1562C97.5391 63.5156 98.125 62.6367 97.9883 61.0547C97.9101 60.2148 97.5586 59.6094 94.7851 55.4883C92.0508 51.4258 91.582 50.8203 90.8203 50.4492C89.8047 49.9219 88.6914 49.8828 87.8711 50.3125C87.5391 50.4688 86.5234 51.1523 85.6055 51.7969C84.6875 52.4414 83.8867 52.8906 83.7891 52.8125C83.6914 52.7148 83.8086 51.7578 84.0039 50.6836C84.4531 48.3984 84.4141 46.875 83.8672 46.1523C83.0273 45.0195 82.6367 44.8828 77.4023 43.9062C74.6289 43.3984 71.9726 42.9688 71.5039 42.9688C70.3711 42.9688 69.1016 43.7109 68.6719 44.6094C68.418 45.1367 67.5976 48.9648 67.5781 49.6484C67.5781 50.1953 66.9336 49.5508 65.9375 48.0469C65.3125 47.0703 64.4922 46.0156 64.1406 45.7031C63.2812 44.9414 62.0117 44.7656 60.8398 45.2148L59.9609 45.5469L58.6523 44.668C57.9102 44.1797 56.6211 43.418 55.7617 42.9492C54.9023 42.5 54.1602 42.0898 54.1211 42.0703C54.082 42.0312 54.4531 41.543 54.9414 40.9766C57.5 37.9492 59.3164 34.082 60.2734 29.5898C60.7812 27.207 60.7422 22.1875 60.1758 19.5898C58.0859 9.76562 50.8008 2.28516 41.4648 0.410156C38.7891 -0.136719 34.668 -0.136719 32.0312 0.410156ZM40.0586 3.63281C44.2773 4.35547 47.9883 6.32812 51.0742 9.49219C53.6133 12.0703 55.6445 15.7031 56.5625 19.2773C57.2266 21.8359 57.4023 25.8789 56.9727 28.418C56.1914 32.9102 54.2773 36.6797 51.1719 39.9219C48.457 42.7344 45.2148 44.6484 41.4453 45.6445C39.8633 46.0547 39.1016 46.1328 36.8164 46.1328C34.4922 46.1523 33.7891 46.0742 32.1875 45.6445C24.1211 43.5156 18.1445 36.875 16.6602 28.418C16.2305 25.8789 16.4062 21.8359 17.0703 19.2773C18.0078 15.6055 20.0391 12.0312 22.6367 9.41406C27.3437 4.66797 33.7109 2.55859 40.0586 3.63281ZM23.7695 45.625C31.543 50.957 42.0898 50.957 49.8633 45.625C50.5859 45.1367 51.2695 44.7266 51.3672 44.7266C51.6602 44.7266 55.2539 46.582 56.1719 47.207L56.9727 47.7539L54.3164 49.6094C52.1289 51.1328 51.582 51.6211 51.2109 52.3438C50.4492 53.8086 50.6445 54.668 52.3437 57.2266C53.125 58.418 53.7109 59.4336 53.6328 59.5117C53.5742 59.5898 52.4609 59.4336 51.1719 59.1992C48.5547 58.7109 47.7344 58.8086 46.6992 59.6875C45.8789 60.3711 45.6445 61.1914 44.6289 66.9141C43.5937 72.7344 43.6133 73.1836 44.8437 74.3555C45.5078 74.9805 45.8984 75.0977 49.4727 75.7812C50.1367 75.918 50.5859 76.0938 50.5273 76.2305C50.4883 76.3477 49.6289 77.0703 48.6328 77.8125C46.3281 79.5508 45.8984 80.1367 45.8984 81.6602C45.8984 82.7734 45.9375 82.8711 47.5586 85.2539L49.2383 87.6953H34.7266H20.2148V83.0859V78.4766L19.668 78.0078C18.9258 77.3828 17.9102 77.3828 17.2852 78.0273L16.7969 78.4961V83.1055V87.6953H10.0586H3.32031V79.7266C3.32031 69.9805 3.53516 67.9102 5 63.4766C7.12891 57.0508 11.4844 51.2695 17.0312 47.5391C18.3789 46.6406 21.9531 44.7266 22.3047 44.7266C22.3828 44.7266 23.0469 45.1367 23.7695 45.625ZM80.8398 48.1836C80.8984 48.2227 80.7422 49.3359 80.5078 50.6641C80.0586 53.2227 79.9805 54.2383 80.2344 54.6484C80.5469 55.1367 83.125 56.6797 83.7891 56.7773C84.3164 56.8555 84.6484 56.7578 85.2539 56.3086C85.6836 55.9961 86.7578 55.2344 87.6367 54.6289L89.2383 53.4961L91.875 57.4414L94.5117 61.3867L92.1875 63.0273C90.8984 63.9258 89.7461 64.8633 89.6289 65.0781C89.2969 65.7031 89.9609 69.082 90.5273 69.6484C90.8398 69.9609 91.6211 70.1953 93.8086 70.6055C95.3906 70.8984 96.6797 71.1523 96.6797 71.1914C96.6797 71.4453 94.9219 80.5273 94.8633 80.6055C94.8047 80.6445 93.5742 80.4492 92.1289 80.1758C90.6445 79.9023 89.2578 79.7266 88.9648 79.8047C88.4375 79.9414 88.3594 80.0195 87.1875 81.8359C86.0351 83.5938 86.0547 83.7305 87.9492 86.6016L89.6094 89.1406L87.5391 90.6055C86.3867 91.4062 84.668 92.6172 83.6914 93.3008L81.9336 94.5312L81.6406 94.1016C79.6289 91.1328 78.5937 89.7852 78.2031 89.6094C77.4609 89.2578 74.1211 89.9414 73.6523 90.5469C73.4375 90.8203 73.1055 92.0898 72.7734 93.8477C72.4023 95.7227 72.1484 96.6797 71.9922 96.6211C71.875 96.582 69.7851 96.1523 67.3242 95.6836C64.6094 95.1758 62.9102 94.7656 62.9687 94.6289C63.0078 94.5117 63.2422 93.2227 63.4961 91.7578C63.8477 89.6484 63.9062 89.0039 63.7305 88.6133C63.4375 87.9883 60.625 86.1328 59.9414 86.1328C59.6094 86.1328 58.5742 86.7383 57.0508 87.8125C55.7227 88.7305 54.6289 89.4531 54.6094 89.4141C53.8281 88.4961 49.4336 81.543 49.5508 81.4453C49.6289 81.3672 50.6445 80.625 51.8164 79.8047C52.9687 78.9648 54.0039 78.1055 54.1211 77.8906C54.2969 77.5781 54.2773 77.1289 54.1016 76.0938C53.75 74.0625 53.5352 73.457 53.0469 73.1445C52.793 72.9688 51.4258 72.6172 49.9805 72.3242C48.5352 72.0508 47.3437 71.7969 47.3242 71.7773C47.2461 71.7383 48.9844 62.4609 49.082 62.3828C49.1211 62.3438 50.293 62.5195 51.6797 62.793C53.0664 63.0664 54.3945 63.2812 54.6484 63.2812C55.1953 63.2812 55.918 62.5586 56.7969 61.1133C57.8906 59.3555 57.8711 59.2188 56.0742 56.4844C55.1953 55.1758 54.4922 54.0234 54.4922 53.9258C54.4922 53.8281 55.7812 52.832 57.3828 51.7383C58.9648 50.625 60.6641 49.4336 61.1523 49.082L62.0508 48.4375L63.3008 50.332C63.9844 51.3867 64.8047 52.5195 65.1172 52.8711C65.7617 53.6133 66.1523 53.6719 68.3594 53.2227C70.4101 52.793 70.5273 52.6367 71.1719 49.1797L71.6992 46.3672L76.2305 47.2266C78.7305 47.7148 80.8008 48.1445 80.8398 48.1836Z" ></path>
      <path d="M69.8243 59.9609C65.8009 60.7812 62.4806 63.7304 61.0939 67.7539C60.4884 69.4726 60.4493 73.164 61.0157 74.8047C62.09 77.9687 64.2189 80.4687 66.9923 81.7969C69.5314 83.0078 71.6407 83.2812 74.3165 82.7148C76.3868 82.2851 78.34 81.2304 79.8829 79.707C82.1095 77.5 83.1642 75.1758 83.34 72.0703C83.5353 68.5937 82.3634 65.5469 79.8634 63.0273C77.3048 60.4687 73.34 59.2578 69.8243 59.9609ZM75.3907 64.0039C77.6564 65.1172 79.4532 67.6172 79.8634 70.2734C80.4103 73.6914 78.4767 77.2461 75.2345 78.7695C74.0236 79.3554 73.7697 79.3945 71.8751 79.3945C70.0001 79.3945 69.7267 79.3359 68.6525 78.8281C65.5079 77.2851 63.4572 73.4179 64.0626 70.1562C64.3556 68.4961 65.4689 66.3867 66.5626 65.4101C69.0626 63.1836 72.5587 62.6367 75.3907 64.0039Z" ></path>
    </g>
    <defs>
      <clipPath id="clip0_194_372">
        <rect width="100" height="100"></rect>
      </clipPath>
    </defs>
  </symbol>
  <symbol xmlns="http://www.w3.org/2000/svg" viewBox="0 0 20 20" id="arrow">
    <path d="M17.2248 7.49997C17.2248 7.65831 17.1664 7.81664 17.0414 7.94164L11.6081 13.375C10.7248 14.2583 9.27477 14.2583 8.39144 13.375L2.95811 7.94164C2.71644 7.69997 2.71644 7.29998 2.95811 7.05831C3.19977 6.81664 3.59977 6.81664 3.84144 7.05831L9.27477 12.4916C9.67477 12.8916 10.3248 12.8916 10.7248 12.4916L16.1581 7.05831C16.3998 6.81664 16.7998 6.81664 17.0414 7.05831C17.1581 7.18331 17.2248 7.34164 17.2248 7.49997Z" ></path>
  </symbol>
    <symbol xmlns="http://www.w3.org/2000/svg" viewBox="0 0 40 40" id="legume">
    <path d="M18.5781 0.125C17.3203 0.320312 16.0781 0.8125 14.9219 1.58594C14.1875 2.07031 13.0469 3.21875 12.5625 3.95312L12.1875 4.51562L11.7344 4.32812C9.21094 3.3125 6.17188 4.75781 5.28125 7.39844C5.17969 7.6875 5.07031 8.10938 5.03906 8.33594C5 8.63281 4.94531 8.75781 4.84375 8.78906C4.53906 8.88281 3.6875 9.5 3.17969 9.99219C2.24219 10.8906 1.66406 11.8281 1.27344 13.1016C1.07031 13.75 1.0625 13.875 1.0625 15.3125C1.0625 17.4922 1.32812 18.9062 2.02344 20.3516C2.70312 21.7656 3.5625 22.6797 4.80469 23.2891C5.84375 23.7969 6.47656 23.9297 7.95312 23.9453L9.22656 23.9609L9.78125 24.5C12.3203 27 14.1719 30.9375 14.7266 35.0625C14.7891 35.5234 14.875 36.3047 14.9141 36.7969C14.9609 37.3828 15.0469 37.8516 15.1562 38.1406C15.3906 38.7656 15.9688 39.3828 16.625 39.7031L17.1484 39.9609H20H22.8516L23.375 39.7031C24.0312 39.3828 24.6094 38.7656 24.8438 38.1484C24.9453 37.8672 25.0391 37.3672 25.0859 36.8047C25.125 36.3047 25.2109 35.5234 25.2734 35.0625C25.8281 30.9453 27.6719 27.0078 30.2188 24.5L30.7734 23.9609L32.0469 23.9453C33.5234 23.9297 34.1562 23.7969 35.1953 23.2891C37.1484 22.3281 38.3516 20.3984 38.8359 17.4609C38.8984 17.0859 38.9375 16.2188 38.9375 15.3125C38.9375 13.8828 38.9219 13.75 38.7266 13.1016C38.3359 11.8359 37.7578 10.8906 36.8203 9.99219C36.3125 9.5 35.4609 8.88281 35.1562 8.78906C35.0625 8.75781 35 8.63281 34.9609 8.375C34.7969 7.25781 34.25 6.1875 33.4766 5.42188C32.1016 4.08594 29.9766 3.64062 28.2656 4.32812L27.8125 4.51562L27.4453 3.96094C25.5156 1.09375 22.0312 -0.414062 18.5781 0.125ZM16.1406 20.2031C16.3828 20.3125 16.8828 20.4844 17.25 20.5938C17.6172 20.6953 17.9297 20.7969 17.9453 20.8125C17.9609 20.8203 17.9609 22.2031 17.9531 23.875L17.9297 26.9062L15.5078 24.5781C14.1797 23.2969 13.0391 22.1953 12.9766 22.1406C12.8828 22.0547 12.9141 21.9844 13.1953 21.6797C13.7266 21.1016 14.2344 20.2656 14.5391 19.4766C14.6016 19.2969 14.6094 19.3047 15.1562 19.6562C15.4609 19.8516 15.9062 20.0938 16.1406 20.2031ZM25.6094 19.8203C25.8125 20.3438 26.3828 21.2266 26.8125 21.6875C27.1328 22.0312 27.1328 22.0391 26.9844 22.1797C26.9062 22.2578 25.7656 23.3516 24.4531 24.6172L22.0703 26.9141L22.0469 23.875C22.0391 22.2031 22.0469 20.8203 22.0625 20.8047C22.0781 20.7812 22.3359 20.7031 22.6328 20.6328C23.375 20.4375 24.2422 20.0547 24.8438 19.6562C25.125 19.4688 25.375 19.3359 25.3984 19.3672C25.4219 19.3906 25.5156 19.5938 25.6094 19.8203Z" ></path>
  </symbol>
    <symbol xmlns="http://www.w3.org/2000/svg" viewBox="0 0 40 40" id="fructe">
    <path d="M11.9062 0.0703125C11.8203 0.109375 11.6484 0.25 11.5391 0.390625C11.3438 0.617188 11.3281 0.6875 11.3281 1.38281C11.3281 2.82812 11.8281 4.51562 12.6016 5.67969C13.0625 6.375 13.9609 7.23438 14.6719 7.64844C15.7734 8.30469 17.4062 8.75 18.7031 8.75C19.8203 8.75 20.1328 8.38281 20.0469 7.17188C19.9531 5.83594 19.6641 4.78125 19.0703 3.63281C18.7812 3.07812 18.5625 2.78125 17.9688 2.17969C16.9297 1.13281 15.7812 0.515625 14.2578 0.195312C13.5234 0.0390625 12.1406 -0.03125 11.9062 0.0703125Z" ></path>
    <path d="M23.7735 1.96875C23.5 2.17188 23.5156 2.14062 22.7891 3.39844C21.711 5.26562 20.4141 7.97656 19.4688 10.3516C19.2344 10.9531 19.0313 11.4531 19.0156 11.4688C19.0078 11.4844 18.6563 11.3672 18.2266 11.2109C14.711 9.89062 11.3125 10.2031 8.55471 12.1172C6.55471 13.4922 5.03127 15.8828 4.50002 18.4609C3.98439 20.9688 4.22658 24.25 5.16408 27.4844C6.59377 32.4062 9.19533 36.4922 12.1641 38.4688C13.6563 39.4609 14.7891 39.8438 16.4141 39.8984C17.6172 39.9453 18.336 39.8359 19.3906 39.4531L20.0078 39.2266L20.5235 39.4219C21.6016 39.8281 22.2969 39.9531 23.5156 39.9531C24.5 39.9531 24.75 39.9219 25.4219 39.7422C28.2344 38.9844 30.75 36.6719 32.7031 33.0469C34.1875 30.2891 35.1797 27.125 35.6328 23.75C35.7735 22.75 35.7735 19.9141 35.6406 19.0625C35.2266 16.4375 34.2578 14.4141 32.6875 12.875C31.6328 11.8438 30.6016 11.2188 29.2578 10.7891C28.2891 10.4766 27.4766 10.3594 26.3281 10.3672C24.7891 10.3672 23.1641 10.6875 21.6797 11.2812C21.2969 11.4297 20.9688 11.5469 20.9531 11.5312C20.9375 11.5156 21.3125 10.9297 21.7813 10.2266C22.6563 8.91406 23.7891 7.44531 24.4375 6.77344C24.8594 6.32812 26.1719 5.17188 27.0547 4.46094C27.3906 4.1875 27.7188 3.88281 27.7891 3.78125C28 3.45312 27.8047 3.29688 26.2031 2.54688C24.5313 1.75781 24.1797 1.67188 23.7735 1.96875Z" ></path>
  </symbol>
    <symbol xmlns="http://www.w3.org/2000/svg" viewBox="0 0 40 40" id="plante de cameră">
    <path d="M0.0548697 0.758172C0.180286 2.56371 0.548697 4.96328 1.01117 6.91733C2.42994 12.9592 4.99314 17.0862 8.38722 18.7823C9.67274 19.431 10.6761 19.689 12.1184 19.7515L13.1139 19.7984L13.0747 19.5717C13.059 19.4467 13.0198 19.0168 12.9963 18.6182C12.863 16.5156 11.8989 12.9983 10.7545 10.4424C10.5428 9.96564 10.386 9.57483 10.4017 9.5592C10.4644 9.49667 12.2908 12.1307 13.2628 13.7018C15.5987 17.4535 17.4956 21.5414 18.35 24.6601C19.2514 27.9272 19.7217 31.6634 19.8471 36.4625C19.8942 38.354 19.9177 38.6901 20.0431 38.9481C20.5918 40.0736 21.9479 40.3472 22.8963 39.5186C23.3902 39.0809 23.4607 38.8308 23.4607 37.2676C23.4607 35.72 23.3431 33.2579 23.1942 31.6556C23.0923 30.6082 23.0923 30.5926 23.3118 29.7015C23.7351 27.9585 24.3465 26.4031 25.2009 24.8946C25.4203 24.5037 25.8279 23.7847 26.1101 23.2922C27.4584 20.9161 29.3945 18.3133 31.0014 16.711C31.7852 15.9294 33.0316 14.8508 33.1491 14.8508C33.1648 14.8508 32.9688 15.1243 32.7023 15.4526C30.8916 17.7193 29.6061 20.4237 29.371 22.4637L29.3161 22.9249L30.1313 22.8702C30.5781 22.8389 31.26 22.7451 31.6441 22.6669C36.0259 21.7134 39.0202 16.7423 39.8824 8.98862C39.9451 8.41022 40 7.77711 40 7.58952V7.24561L39.2789 7.30032C35.8769 7.55826 32.0753 8.51183 29.614 9.73116C28.2657 10.3955 27.3643 11.0286 26.4315 11.951C25.2714 13.1077 24.6678 14.1082 24.2994 15.4995C24.0721 16.3827 24.0564 18.3055 24.2759 19.3529L24.4248 20.0642L23.7507 20.8458C23.1237 21.5727 21.893 23.3001 21.893 23.4564C21.893 23.4955 21.8617 23.5267 21.8303 23.5267C21.7911 23.5267 21.6657 23.1828 21.5481 22.7686C21.1013 21.1741 20.098 18.8526 19.2436 17.4457L18.8517 16.797L19.0398 16.0779C19.6198 13.8034 19.6277 11.482 19.079 9.72334C18.2716 7.17526 16.4687 5.11179 13.6234 3.47039C10.6682 1.77428 6.36488 0.570584 1.63825 0.117245C0.948462 0.0547155 0.305703 2.23059e-06 0.195963 2.23059e-06H0L0.0548697 0.758172Z"></path>
  </symbol>
  <symbol  xmlns="http://www.w3.org/2000/svg" viewBox="0 0 28 34" id="plante tropicale">
    <path d="M10.3204 1.21095C10.0235 1.51564 10.0313 1.75783 10.3673 2.31252C11.0469 3.4297 11.4923 4.53127 11.6954 5.6172C11.7579 5.95314 11.8126 6.25002 11.8126 6.25783C11.8126 6.27345 11.5548 6.17189 11.2501 6.02345C9.69539 5.31252 8.61726 5.07814 7.25789 5.14845C5.23445 5.25783 3.63289 6.06252 1.71882 7.9297C1.06257 8.56252 0.953199 8.70314 0.953199 8.92189C0.953199 9.28127 1.02351 9.41408 1.28132 9.54689C1.49226 9.65627 1.5782 9.64845 2.34382 9.46877C2.80476 9.35939 3.44539 9.22658 3.7657 9.1797C4.46882 9.06252 6.3282 9.04689 7.08601 9.14064L7.63289 9.21095L6.92976 9.39845C6.02351 9.63283 4.82039 10.2266 4.03132 10.8125C2.85164 11.6875 1.67195 13.1641 0.953199 14.6641C0.593824 15.4141 0.593824 15.6406 0.929762 15.9063C1.28132 16.1875 1.50007 16.1172 2.29695 15.461C3.22664 14.7031 4.37507 13.9453 5.10945 13.6094C5.61726 13.3828 6.10945 13.211 6.10945 13.2656C6.10945 13.2813 6.02351 13.5469 5.91414 13.8594C5.54695 14.9453 5.44539 15.6172 5.4532 17C5.4532 18.4375 5.57039 19.2578 5.99226 20.7891C6.30476 21.9219 7.00007 23.7266 7.18757 23.8906C7.50007 24.1719 7.9532 24.125 8.17195 23.7813C8.24226 23.6641 8.3282 23.1172 8.41414 22.2344C8.78914 18.1719 9.41414 15.9219 10.586 14.3906C11.0001 13.8438 11.9141 13.0625 12.0704 13.1172C12.2735 13.1797 12.7501 15.125 12.9063 16.4922C13.0235 17.5391 13.0001 19.8985 12.8673 20.961C12.7032 22.1797 11.5001 28.2969 11.1407 29.6719C10.9844 30.2735 10.7423 31.1094 10.5938 31.5469C10.3516 32.2813 10.3438 32.3438 10.4454 32.5938C10.5079 32.75 10.6407 32.8906 10.7579 32.9375C11.0391 33.0469 14.9532 33.0391 15.1954 32.9297C15.2891 32.8828 15.4141 32.7813 15.461 32.7031C15.6485 32.4063 16.4532 27.9453 16.7344 25.6719C17.0548 23.0078 17.1407 20.2578 16.9688 18.4766C16.8516 17.3047 16.5313 15.5391 16.2188 14.3828C16.1641 14.1719 16.5001 14.5469 17.2501 15.5469C18.3126 16.9453 19.4219 18.9922 20.3751 21.2813C20.6563 21.961 20.9532 22.5703 21.0391 22.6406C21.2266 22.8047 21.6407 22.8203 21.8204 22.6797C22.1016 22.461 22.8282 20.7656 23.1485 19.5781C23.3907 18.6563 23.3985 17.0938 23.1485 16.1797C22.5704 14.0078 21.2032 12.375 18.7891 10.9688C18.3438 10.711 17.9844 10.4844 17.9844 10.461C17.9844 10.3985 19.211 10.5156 19.9376 10.6406C21.9688 11.0078 24.2344 12.1328 25.8594 13.5938C26.4844 14.1563 26.7188 14.2266 27.0704 13.9531C27.3829 13.7031 27.3829 13.5 27.0782 12.6172C26.2969 10.3672 25.0548 8.46877 23.6641 7.42189C23.0626 6.96877 22.0938 6.50783 21.2423 6.28127C20.3751 6.04689 18.7657 6.03127 17.9063 6.25002C17.2501 6.41408 16.4844 6.69533 16.0313 6.92189C15.6251 7.13283 15.5391 7.1172 15.5782 6.88283C15.6563 6.4922 15.4923 5.31252 15.2813 4.73439C14.7188 3.17189 13.586 2.10158 11.6329 1.28908C11.2423 1.12502 10.836 0.984394 10.7344 0.984394C10.6329 0.984394 10.4454 1.08595 10.3204 1.21095Z"></path>
  </symbol>
    <symbol xmlns="http://www.w3.org/2000/svg" viewBox="0 0 40 40" id="plante de grădină">
    <path d="M19.6253 1.73438C18.9534 2.61719 18.3909 4.03125 18.1488 5.45312C18.0159 6.26562 17.9847 8.53906 18.1019 9.57031L18.1644 10.1172L18.6331 10.0781C18.8909 10.0547 19.5081 10.0391 20.0003 10.0391C20.4925 10.0391 21.1097 10.0547 21.3675 10.0781L21.8363 10.1172L21.8909 9.60938C21.9222 9.32812 21.9534 8.45312 21.9613 7.65625C21.9847 5.60156 21.7113 4.20312 21.0394 2.85156C20.7425 2.25781 20.1097 1.32812 20.0081 1.32812C19.9691 1.32812 19.7972 1.51562 19.6253 1.73438Z" ></path>
    <path d="M12.7027 3.14062C12.3668 4.27344 12.398 5.89844 12.7809 7.42187L12.984 8.23437L13.7262 9.02344C14.1324 9.45312 14.7027 10.0859 14.984 10.4375L15.4918 11.0703L16.1012 10.8047C16.4293 10.6641 16.7496 10.5469 16.7965 10.5469C16.8668 10.5469 16.8824 10.4609 16.8434 10.25C16.7574 9.73437 16.6246 7.42187 16.6637 7.16406C16.7809 6.39844 14.8277 3.86719 13.4996 3.07031C12.8277 2.66406 12.8355 2.66406 12.7027 3.14062Z" ></path>
    <path d="M26.5785 3.02344C25.5395 3.64063 24.2582 5.0625 23.602 6.32813C23.3754 6.76563 23.3051 6.97656 23.3364 7.16406C23.3754 7.42188 23.2426 9.73438 23.1567 10.25C23.1176 10.4609 23.1332 10.5469 23.2035 10.5469C23.2504 10.5469 23.5707 10.6641 23.8989 10.8125L24.5082 11.0703L25.0004 10.4609C25.266 10.125 25.8285 9.49219 26.2504 9.04688L27.016 8.25L27.2192 7.42188C27.4926 6.3125 27.5942 5.21094 27.4926 4.28906C27.4223 3.53125 27.227 2.73438 27.1254 2.73438C27.0942 2.73438 26.8442 2.86719 26.5785 3.02344Z" ></path>
    <path d="M6.79688 7.08594C6.79688 7.50781 7.04688 8.45312 7.33594 9.14062C8.03906 10.7812 9.30469 12.3203 11.3203 13.9844L11.7422 14.3359L11.9844 14.0234C12.2969 13.6172 13.6172 12.2969 14.0234 11.9844L14.3359 11.7422L13.8672 11.1641C13.1406 10.2812 11.7422 8.91406 11.0547 8.42187C9.80469 7.53906 8.35938 6.92187 7.30469 6.82031L6.79688 6.77344V7.08594Z" ></path>
    <path d="M31.9844 6.95312C29.9688 7.47656 27.9688 8.92187 26.1328 11.1719L25.6641 11.7422L25.9766 11.9844C26.375 12.2891 27.7031 13.6172 28.0156 14.0234L28.2578 14.3359L28.6797 13.9844C30.7734 12.2578 32.0625 10.6562 32.7344 8.96094C32.9922 8.30469 33.2031 7.46875 33.2031 7.04687C33.2031 6.80469 33.1953 6.79687 32.875 6.80469C32.6875 6.80469 32.2891 6.86719 31.9844 6.95312Z" ></path>
    <path d="M18.7964 11.4141C17.6793 11.5781 16.5464 11.9844 15.4996 12.6016C14.5308 13.1719 13.1714 14.5312 12.6011 15.5C11.398 17.5469 11.0386 19.8594 11.5933 22.0391C12.0152 23.7109 12.6793 24.875 13.898 26.1016C15.1168 27.3125 16.2496 27.9609 17.9605 28.4141C18.6168 28.5938 18.8668 28.6172 19.9996 28.6172C21.1324 28.6172 21.3824 28.5938 22.0386 28.4141C24.1011 27.8672 25.7496 26.7656 26.9683 25.125C29.4371 21.8047 29.1558 17.1094 26.3199 14.1016C25.4996 13.2422 24.8355 12.7422 23.8668 12.2656C22.2496 11.4688 20.4605 11.1719 18.7964 11.4141Z" ></path>
    <path d="M4.18717 12.5079C3.85123 12.5391 3.38248 12.6251 3.1481 12.6954C2.66373 12.836 2.66373 12.8282 3.06998 13.5001C3.86685 14.8282 6.3981 16.7813 7.16373 16.6641C7.42154 16.6251 9.73404 16.7579 10.2575 16.8438C10.4606 16.8829 10.5465 16.8673 10.5465 16.7969C10.5465 16.7501 10.6637 16.4298 10.8122 16.0938L11.0778 15.4844L10.4762 15.0079C10.1481 14.7501 9.53092 14.2032 9.10123 13.7891C8.3981 13.1094 8.2731 13.0235 7.81217 12.8829C6.6481 12.5391 5.24185 12.3907 4.18717 12.5079Z" ></path>
    <path d="M34.0859 12.5079C33.7266 12.5391 33.0625 12.6641 32.5938 12.7735L31.75 12.9844L30.9531 13.7501C30.5078 14.1719 29.875 14.7344 29.5391 15.0001L28.9297 15.4923L29.1875 16.1016C29.3359 16.4298 29.4531 16.7501 29.4531 16.7969C29.4531 16.8673 29.5391 16.8829 29.7578 16.8438C30.25 16.7657 32.2969 16.6329 32.7891 16.6485C33.1797 16.6641 33.3047 16.6251 33.75 16.3751C35.2969 15.4844 36.8594 13.9532 37.2266 12.9532C37.2656 12.8438 37.1953 12.7969 36.8594 12.7032C36.4844 12.5938 35.125 12.4141 34.8438 12.4376C34.7812 12.4376 34.4375 12.4688 34.0859 12.5079Z" ></path>
    <path d="M6.32031 18.047C5.46094 18.1251 4.51562 18.3204 3.82812 18.5548C3.11719 18.797 1.99219 19.3907 1.60156 19.7267L1.28906 20.0001L1.60156 20.2735C2.02344 20.6407 3.25781 21.2657 4.02344 21.5079C5.16406 21.8595 6.07031 21.9767 7.65625 21.961C8.45312 21.9532 9.32812 21.922 9.60938 21.8907L10.1172 21.836L10.0781 21.3673C10.0547 21.1095 10.0391 20.4923 10.0391 20.0001C10.0391 19.5079 10.0547 18.8907 10.0781 18.6329L10.1172 18.1642L9.60938 18.1173C8.60938 18.0157 6.98438 17.9845 6.32031 18.047Z" ></path>
    <path d="M31.0153 18.0546C30.4372 18.0937 29.9372 18.1562 29.8981 18.1952C29.8668 18.2265 29.8825 18.5312 29.9293 18.8749C30.0075 19.414 29.9997 19.9999 29.8981 21.6015C29.8825 21.8359 29.8825 21.8359 30.3903 21.8905C31.3981 22.0077 33.7497 21.9843 34.5465 21.8437C35.484 21.6874 36.4372 21.3905 37.1481 21.039C37.7575 20.7343 38.6715 20.1093 38.6715 19.9999C38.6715 19.8749 37.8747 19.3202 37.2262 18.9999C35.5934 18.1874 33.57 17.8749 31.0153 18.0546Z" ></path>
    <path d="M9.72611 23.211C9.4683 23.2423 8.70267 23.2891 8.02299 23.3126C6.79642 23.3595 6.7808 23.3595 6.26517 23.6329C5.08549 24.2501 3.64017 25.547 3.06986 26.5001C2.66361 27.172 2.66361 27.1641 3.14017 27.297C4.24955 27.6251 5.87455 27.5938 7.4058 27.2266L8.24174 27.0235L9.06205 26.2423C9.51517 25.8126 10.148 25.2501 10.4761 24.9845L11.0699 24.5079L10.812 23.8985C10.6636 23.5704 10.5464 23.2579 10.5464 23.211C10.5464 23.1173 10.4214 23.1173 9.72611 23.211Z" ></path>
    <path d="M29.4531 23.203C29.4531 23.2499 29.3359 23.5702 29.1875 23.8983L28.9297 24.5077L29.5391 24.9999C29.875 25.2655 30.5078 25.828 30.9531 26.2499L31.75 27.0155L32.5781 27.2187C34.1094 27.6015 35.7266 27.6327 36.8594 27.2968C37.3359 27.164 37.3359 27.1796 36.9297 26.4843C36.2031 25.2499 33.5859 23.2187 32.8594 23.3358C32.6094 23.3749 30.2656 23.2421 29.75 23.1562C29.5391 23.1171 29.4531 23.1327 29.4531 23.203Z" ></path>
    <path d="M11.0156 26.2656C10.0625 27.0703 8.9375 28.2344 8.42188 28.9609C7.5625 30.1562 6.91406 31.6641 6.82031 32.7109L6.77344 33.2031H7.08594C7.25781 33.2031 7.66406 33.1328 7.98438 33.0547C9.86719 32.5703 11.6406 31.3594 13.3984 29.3516C13.8906 28.7891 14.2969 28.3047 14.2969 28.2734C14.2969 28.2422 14.0938 28.0547 13.8516 27.8594C13.3438 27.4766 12.4297 26.5469 12.0391 26.0312C11.8984 25.8516 11.7578 25.7031 11.7344 25.7031C11.7031 25.7031 11.3828 25.9531 11.0156 26.2656Z" ></path>
    <path d="M27.8672 26.1484C27.5 26.625 26.5078 27.6016 25.9766 28.0156L25.6641 28.2578L26.1328 28.8359C26.8438 29.7109 28.2578 31.0781 28.9609 31.5781C30.1641 32.4453 31.6641 33.0859 32.7109 33.1797L33.2031 33.2266V32.9141C33.2031 32.7422 33.1328 32.3359 33.0547 32.0156C32.5703 30.1328 31.3594 28.3594 29.3516 26.6016C28.7891 26.1094 28.3047 25.7031 28.2734 25.7031C28.2422 25.7031 28.0547 25.9062 27.8672 26.1484Z" ></path>
    <path d="M14.9995 29.5391C14.7339 29.875 14.1714 30.5078 13.7495 30.9531L12.9839 31.75L12.7808 32.5781C12.5073 33.6875 12.4058 34.7891 12.5073 35.7109C12.5777 36.4375 12.773 37.2656 12.8667 37.2656C12.8902 37.2656 13.0777 37.1719 13.273 37.0547C14.4839 36.3594 15.5933 35.1563 16.3902 33.6797C16.6402 33.2266 16.6948 33.0547 16.6636 32.8203C16.6245 32.5313 16.7573 30.2813 16.8433 29.7422C16.8823 29.5391 16.8667 29.4531 16.7964 29.4531C16.7495 29.4531 16.4292 29.3359 16.1011 29.1875L15.4917 28.9297L14.9995 29.5391Z" ></path>
    <path d="M23.9063 29.1875C23.586 29.3281 23.2735 29.4531 23.211 29.4531C23.1329 29.4531 23.1173 29.5234 23.1563 29.7422C23.2423 30.2656 23.3751 32.5781 23.336 32.8359C23.2188 33.6015 25.172 36.1328 26.5001 36.9297C27.172 37.3359 27.1641 37.3359 27.297 36.8593C27.6251 35.7422 27.5938 34.0937 27.2188 32.5781L27.0157 31.7422L26.3673 31.0781C26.0157 30.7109 25.4532 30.0781 25.1173 29.6797C24.7813 29.2734 24.5079 28.9453 24.5001 28.9375C24.5001 28.9297 24.2266 29.0468 23.9063 29.1875Z" ></path>
    <path d="M18.1715 29.9063C18.1559 29.9375 18.1012 30.5625 18.0543 31.2891C17.9215 33.2266 18.0856 34.7891 18.5465 36.1563C18.7965 36.8828 19.3903 38.0078 19.7262 38.3984L19.9996 38.7109L20.2731 38.3984C20.6403 37.9766 21.2653 36.7422 21.5075 35.9766C21.859 34.8359 21.9762 33.9297 21.9606 32.3438C21.9528 31.5469 21.9215 30.6719 21.8903 30.3906L21.8356 29.8828L21.3668 29.9219C20.6715 29.9766 19.1637 29.9688 18.6559 29.8984C18.4137 29.8672 18.195 29.8672 18.1715 29.9063Z" ></path>
  </symbol>
  <symbol xmlns="http://www.w3.org/2000/svg" viewBox="0 0 40 40" id="plante exotice">
    <path d="M33.9453 0.680471C32.625 2.74739 31.3438 4.29559 29.125 6.5301C27.0703 8.59702 26.0391 9.46689 24.1172 10.7437L23.1953 11.3503L23.4453 11.8131C24.375 13.481 26.7969 15.947 28.5156 16.9605L28.8672 17.168L29.3359 16.4019C31.5781 12.7149 35.3281 8.90826 39.2031 6.40241C39.6406 6.11512 40 5.85177 40 5.81985C40 5.70014 39.5859 5.02979 39.1094 4.37539C38.5703 3.61726 36.8438 1.79773 36.0547 1.14333C35.6016 0.760274 34.8281 0.201647 34.4922 0.00213687C34.4453 -0.0297847 34.2031 0.281451 33.9453 0.680471Z" ></path>
    <path d="M10.5702 2.74745C9.87491 3.71307 9.5546 4.25574 9.09366 5.23733C6.77335 10.1692 7.35929 16.0508 10.6093 20.424C10.8437 20.7432 11.0624 21.0066 11.0858 21.0066C11.1483 21.0066 11.8983 20.0011 12.2577 19.4265C15.2343 14.7101 15.2733 8.56515 12.3671 3.84874C12.039 3.33001 11.1483 2.10103 11.0937 2.09305C11.0702 2.09305 10.8358 2.38833 10.5702 2.74745Z" ></path>
    <path d="M21.5234 13.6806C20.5078 15.149 19.5703 16.2583 17.8906 17.998C15.9375 20.041 14.2578 21.4695 12.4844 22.6027C12.1094 22.8421 11.7969 23.0735 11.7969 23.1214C11.7969 23.1613 11.9219 23.4167 12.0781 23.6721C12.7734 24.8611 14.0156 26.2976 15.2344 27.343C15.9063 27.9176 17.1797 28.8274 17.3125 28.8274C17.3516 28.8274 17.5938 28.4922 17.8516 28.0932C19.1328 26.0821 20.6563 24.2227 22.5078 22.4271C24.0391 20.9428 24.9375 20.1607 26.2266 19.1871C26.7891 18.7641 27.2578 18.389 27.2578 18.3651C27.2656 18.3412 26.9375 18.0778 26.5469 17.7745C25.6016 17.0643 23.3906 14.7979 22.6641 13.8003C22.3516 13.3773 22.0703 13.0262 22.0391 13.0262C22.0078 13.0262 21.7734 13.3215 21.5234 13.6806Z" ></path>
    <path d="M1.79693 17.7987C1.37506 17.8625 1.37506 17.8944 1.82037 18.6446C2.59381 19.9693 4.13287 21.2621 5.56256 21.7968C6.5235 22.1639 6.961 22.2358 8.17975 22.2358C8.82818 22.2437 9.38287 22.2198 9.41412 22.1879C9.55475 22.0522 8.69537 20.7195 8.01568 20.0172C7.14068 19.1074 5.711 18.2855 4.45318 17.9742C3.75006 17.7987 2.38287 17.7109 1.79693 17.7987Z" ></path>
    <path d="M9.99219 25.6113C7.39062 29.2025 4.02344 32.4984 0.71875 34.693C0.328125 34.9564 0 35.2118 0 35.2596C0 35.3714 0.742188 36.4487 1.24219 37.0473C1.875 37.8134 2.75 38.7311 3.47656 39.3775L4.17188 40H5.19531H6.21875L6.35938 39.7526C6.57812 39.3775 7.85938 37.6298 8.34375 37.0473C9.03125 36.2333 11.3594 33.8391 12.2656 33.0251C13.1719 32.2111 14.1328 31.437 15.1797 30.6709C15.5547 30.3996 15.8594 30.1442 15.8594 30.1123C15.8594 30.0883 15.75 29.9926 15.6172 29.9128C14.6484 29.3302 12.3203 27.0398 11.25 25.6193C10.9375 25.2123 10.6562 24.8692 10.625 24.8532C10.5859 24.8372 10.3047 25.1804 9.99219 25.6113Z" ></path>
  </symbol>
  <symbol xmlns="http://www.w3.org/2000/svg" viewBox="0 0 32 48" id="plante suculente">
    <path d="M14.9392 0.0972691C14.0076 0.302907 12.8486 0.88735 12.1661 1.49344C11.4296 2.14282 10.8988 2.95455 10.5305 4.00438L10.2272 4.8594L10.1947 11.5372L10.1622 18.2258H9.2631H8.35319L8.15821 17.8146C7.9849 17.4574 7.9524 17.0028 7.89824 13.7884L7.84408 10.1627L7.50828 9.45919C7.05332 8.48512 6.59837 8.0089 5.75345 7.59763C5.10352 7.27294 4.94104 7.24047 4.05279 7.24047C3.18621 7.24047 3.00206 7.27294 2.35213 7.58681C1.13892 8.16043 0.39149 9.10203 0.0990191 10.4333C0.0123611 10.8662 -0.0201357 12.3922 0.0123611 15.8989L0.0448578 20.7693L0.337329 21.6135C1.29057 24.2867 3.13205 25.8669 5.92677 26.4081C6.41422 26.4946 7.42162 26.5596 8.50485 26.5596H10.2813V36.3544V46.1493H7.57327H4.85438L4.5944 46.4198C4.16111 46.8419 4.2911 47.6212 4.83271 47.8701C5.20101 48.0433 26.8438 48.0433 27.2121 47.8701C27.7538 47.6212 27.8837 46.8419 27.4505 46.4198L27.1905 46.1493H24.4174H21.6552V37.9995V29.839L23.7458 29.774C27.0388 29.6766 28.2954 29.2437 29.8444 27.7068C30.5485 27.0033 30.8085 26.6462 31.1659 25.9102C32 24.1569 32 24.1136 32 18.4423V13.4096L31.7075 12.7927C31.3609 12.0459 30.6351 11.2991 29.9202 10.9311C27.3638 9.64318 25.154 10.5415 24.125 13.3122C23.9083 13.9075 23.8866 14.1997 23.8325 17.5007L23.7675 21.0615L23.5075 21.2671C23.3125 21.4295 23.0851 21.4728 22.4568 21.4728H21.6552V13.2689C21.6552 4.38319 21.6444 4.22084 21.0594 3.0736C20.0087 1.0064 17.1273 -0.389767 14.9392 0.0972691Z" ></path>
  </symbol>
    <symbol  xmlns="http://www.w3.org/2000/svg" viewBox="0 0 40 40" id="plante aromatice">
    <g clip-path="url(#clip0_199_374)">
      <path d="M21.648 0.0858498C21.5386 0.124912 19.398 1.4296 16.8902 2.98429L12.3277 5.8046L11.4996 4.98429C10.5777 4.07022 10.4527 3.98429 10.0386 3.98429C9.72614 3.98429 9.50739 4.07804 9.24958 4.31241C9.15583 4.39054 7.92927 6.46085 6.51521 8.90616L3.94489 13.3437L3.58552 13.0077C2.75739 12.2343 1.86677 12.414 1.43708 13.4296C1.10114 14.2265 0.601144 15.8983 0.398019 16.9296C-0.601981 21.9062 0.366769 27.0155 3.10114 31.2108C3.64021 32.0312 4.49958 33.1718 4.71833 33.3593C4.84333 33.453 5.09333 33.2265 7.19489 31.1249L9.53083 28.789V23.6327C9.53083 18.7187 9.53864 18.4608 9.68708 18.1483C9.84333 17.789 10.1871 17.5312 10.6011 17.453C10.9683 17.3827 11.5465 17.6874 11.734 18.0468C11.8668 18.2968 11.8746 18.6015 11.8746 22.3827V26.4452L14.9605 23.3593L18.0465 20.2733V15.1952C18.0465 11.7265 18.0777 10.0155 18.1324 9.8046C18.2496 9.39835 18.6558 9.01554 19.0543 8.94522C19.4761 8.87491 20.0152 9.1171 20.234 9.46866C20.3824 9.71866 20.3902 9.85147 20.3902 13.828V17.9296L23.6949 14.6405C25.5074 12.828 27.0777 11.289 27.1871 11.2187C27.4527 11.0468 28.1011 11.0546 28.3902 11.2421C28.5074 11.3202 28.6793 11.4921 28.7574 11.6093C28.9449 11.8983 28.9527 12.5468 28.7808 12.8124C28.7105 12.9218 27.1715 14.4921 25.359 16.3046L22.0699 19.6093H26.1715C30.148 19.6093 30.2808 19.6171 30.5308 19.7655C30.8824 19.9843 31.1246 20.5233 31.0543 20.9452C30.984 21.3437 30.6011 21.7499 30.1949 21.8671C29.984 21.9218 28.273 21.953 24.8043 21.953H19.7261L16.6402 25.039L13.5543 28.1249H17.6168C21.4371 28.1249 21.6949 28.1327 21.9527 28.2733C22.3121 28.4608 22.6168 29.0312 22.5465 29.3905C22.4683 29.8124 22.2105 30.1562 21.8511 30.3124C21.5386 30.4608 21.2808 30.4687 16.3668 30.4687H11.2105L8.86677 32.8202L6.52302 35.164L6.83552 35.4452C7.39021 35.9374 8.53083 36.7577 9.37458 37.2655C14.359 40.2733 20.5465 40.8202 26.0621 38.7499C26.9918 38.3983 27.2965 38.1718 27.4371 37.7187C27.5621 37.3046 27.4136 36.8671 26.9918 36.414L26.6558 36.0546L31.0933 33.4921C33.5386 32.078 35.6011 30.8515 35.6871 30.7577C35.9215 30.4921 36.0152 30.2733 36.0152 29.9608C36.0152 29.5468 35.9293 29.4218 35.023 28.4999L34.1949 27.6718L37.0308 23.0937C38.5855 20.578 39.8902 18.3983 39.9371 18.2499C40.109 17.6952 39.984 17.4765 38.9371 16.4062C38.2808 15.7343 37.9683 15.3593 37.9683 15.2421C37.9683 15.1483 38.3433 12.0233 38.7965 8.29679C39.4761 2.69522 39.6011 1.47647 39.5308 1.23429C39.4371 0.906162 39.0152 0.507725 38.6949 0.437412C38.5699 0.406162 35.4371 0.757725 31.7183 1.21085C27.9996 1.66397 24.8746 2.03116 24.773 2.03116C24.6324 2.03116 24.3277 1.78116 23.6324 1.10147C22.523 -8.7738e-05 22.234 -0.148525 21.648 0.0858498Z" ></path>
    </g>
    <defs>
      <clipPath id="clip0_199_374">
        <rect width="40" height="40" ></rect>
      </clipPath>
    </defs>
  </symbol>
  <symbol xmlns="http://www.w3.org/2000/svg" viewBox="0 0 416 513" id="trash">
    <path  d="M162.47 1.99145C154.576 4.26545 148.355 8.02145 142.066 14.3104C131.654 24.7214 127.97 34.7785 127.97 52.7864V64.0324L78.7197 64.3264L29.4697 64.6204L23.7167 67.3164C15.6687 71.0884 7.61267 79.0234 3.68667 87.0464L0.469675 93.6204L0.146673 117.12C-0.174327 140.381 -0.153325 140.655 2.16968 144.096C3.46068 146.008 6.03568 148.596 7.89168 149.846L11.2657 152.12H207.97H404.674L408.048 149.846C409.904 148.596 412.479 146.008 413.77 144.096C416.093 140.655 416.114 140.381 415.793 117.12L415.47 93.6204L412.253 87.0464C408.327 79.0234 400.27 71.0874 392.223 67.3164L386.47 64.6204L337.22 64.3264L287.97 64.0324V52.7864C287.97 45.8924 287.375 39.2554 286.432 35.6354C282.292 19.7394 268.351 5.79845 252.455 1.65845C243.275 -0.732552 170.998 -0.465552 162.47 1.99145ZM247.008 34.3704C253.708 37.7484 255.97 42.9145 255.97 54.8325V64.1204H207.97H159.97V54.8325C159.97 42.9145 162.232 37.7484 168.932 34.3704C173.302 32.1664 174.102 32.1204 207.97 32.1204C241.838 32.1204 242.638 32.1664 247.008 34.3704ZM26.6537 185.917C25.1497 187.578 25.5097 197.9 31.4447 323.167C34.9737 397.666 38.1167 462.055 38.4287 466.253C40.0707 488.311 53.8717 505.213 74.6627 510.628C83.2787 512.872 332.661 512.872 341.277 510.628C357.517 506.398 370.158 494.556 375.181 478.868C376.981 473.247 377.87 458.315 384.035 330.154C390.354 198.811 390.763 187.549 389.275 185.904C387.737 184.205 379.138 184.12 207.97 184.12C36.3237 184.12 28.2067 184.2 26.6537 185.917ZM135.008 210.37C138.268 212.014 140.076 213.822 141.72 217.082L143.97 221.544V328.12V434.696L141.72 439.158C139.298 443.961 132.917 448.12 127.97 448.12C123.023 448.12 116.642 443.961 114.22 439.158L111.97 434.696V328.12V221.544L114.22 217.082C116.642 212.279 123.023 208.12 127.97 208.12C129.387 208.12 132.554 209.132 135.008 210.37ZM215.008 210.37C218.268 212.014 220.076 213.822 221.72 217.082L223.97 221.544V328.12V434.696L221.72 439.158C219.298 443.961 212.917 448.12 207.97 448.12C203.023 448.12 196.642 443.961 194.22 439.158L191.97 434.696V328.12V221.544L194.22 217.082C196.642 212.279 203.023 208.12 207.97 208.12C209.387 208.12 212.554 209.132 215.008 210.37ZM295.008 210.37C298.268 212.014 300.076 213.822 301.72 217.082L303.97 221.544V328.12V434.696L301.72 439.158C299.298 443.961 292.917 448.12 287.97 448.12C283.023 448.12 276.642 443.961 274.22 439.158L271.97 434.696V328.12V221.544L274.22 217.082C276.642 212.279 283.023 208.12 287.97 208.12C289.387 208.12 292.554 209.132 295.008 210.37Z"></path>
  </symbol>
    <symbol  xmlns="http://www.w3.org/2000/svg" viewBox="0 0 20 20" id="drop">
    <path d="M15.8332 11.5C15.8332 8.18667 9.99984 2.5 9.99984 2.5C9.99984 2.5 4.1665 8.18667 4.1665 11.5C4.1665 14.8133 6.77817 17.5 9.99984 17.5C13.2215 17.5 15.8332 14.8133 15.8332 11.5Z" stroke="black"></path>
  </symbol>
  <symbol  xmlns="http://www.w3.org/2000/svg" viewBox="0 0 20 20" id="sun">
    <g clip-path="url(#clip0_162_1561)">
      <path d="M10 15C11.3261 15 12.5979 14.4732 13.5355 13.5355C14.4732 12.5979 15 11.3261 15 10C15 8.67392 14.4732 7.40215 13.5355 6.46447C12.5979 5.52678 11.3261 5 10 5C8.67392 5 7.40215 5.52678 6.46447 6.46447C5.52678 7.40215 5 8.67392 5 10C5 11.3261 5.52678 12.5979 6.46447 13.5355C7.40215 14.4732 8.67392 15 10 15Z" stroke="black" stroke-linecap="round" stroke-linejoin="round"></path>
      <path d="M18.3335 10H19.1668" stroke="black" stroke-linecap="round" stroke-linejoin="round"></path>
      <path d="M10 1.66659V0.833252" stroke="black" stroke-linecap="round" stroke-linejoin="round"></path>
      <path d="M10 19.1666V18.3333" stroke="black" stroke-linecap="round" stroke-linejoin="round"></path>
      <path d="M16.6668 16.6666L15.8335 15.8333" stroke="black" stroke-linecap="round" stroke-linejoin="round"></path>
      <path d="M16.6668 3.33325L15.8335 4.16659" stroke="black" stroke-linecap="round" stroke-linejoin="round"></path>
      <path d="M3.3335 16.6666L4.16683 15.8333" stroke="black" stroke-linecap="round" stroke-linejoin="round"></path>
      <path d="M3.3335 3.33325L4.16683 4.16659" stroke="black" stroke-linecap="round" stroke-linejoin="round"></path>
      <path d="M0.833496 10H1.66683" stroke="black" stroke-linecap="round" stroke-linejoin="round"></path>
    </g>
    <defs>
      <clipPath id="clip0_162_1561">
        <rect width="20" height="20" ></rect>
      </clipPath>
    </defs>
  </symbol>
    <symbol  xmlns="http://www.w3.org/2000/svg" viewBox="0 0 21 21" id="close">
    <path d="M3.8335 3.8335L17.1668 17.1668"  stroke-width="2.875" stroke-linecap="round" stroke-linejoin="round"></path>
    <path d="M3.8335 17.1668L17.1668 3.8335"   stroke-width="2.875" stroke-linecap="round" stroke-linejoin="round"></path>
  </symbol>
    <symbol xmlns="http://www.w3.org/2000/svg" viewBox="0 0 100 100" id="edit">
    <path d="M71.6797 9.66797C69.7656 10.0977 67.9297 10.8594 66.3477 11.9141C65.2734 12.6172 58.9648 18.8477 39.6289 38.2031L14.3164 63.5742L11.8359 75.1953C10.4883 81.582 9.375 87.207 9.375 87.6953C9.375 89.4141 10.625 90.625 12.4219 90.625C13.8281 90.625 36.0742 85.8203 36.8164 85.3516C37.6953 84.7852 87.168 35.1953 87.832 34.1797C88.7305 32.832 89.5703 31.0938 90.0781 29.4922C90.4688 28.2227 90.5273 27.6367 90.5273 25C90.5273 22.3633 90.4688 21.7773 90.0781 20.5078C89.1211 17.4609 87.3633 14.7852 85.0391 12.8516C83.7109 11.7383 80.8984 10.293 79.1992 9.84375C77.5586 9.39453 73.3008 9.29688 71.6797 9.66797ZM77.4414 16.1133C79.5703 16.6797 81.6016 18.1641 82.8516 20.1172C84.6289 22.9102 84.6094 27.1094 82.793 29.9805C82.4609 30.5078 80.5859 32.5586 78.6328 34.5312L75.0977 38.1055L68.5547 31.543L62.0117 25L65.918 21.1133C69.9414 17.1289 70.7812 16.5039 72.793 16.0352C73.9844 15.7617 76.1914 15.8008 77.4414 16.1133ZM64.0234 36.1914L70.5078 42.6758L51.9922 61.1914L33.4961 79.6875L25.2344 81.4648C20.6836 82.4414 16.9336 83.2031 16.875 83.1445C16.8359 83.1055 17.5781 79.3945 18.5352 74.9023L20.293 66.7188L38.8086 48.2031C48.9844 38.0273 57.3633 29.6875 57.4219 29.6875C57.4805 29.6875 60.4492 32.6172 64.0234 36.1914Z"></path>
  </symbol>
</svg>